<svg xmlns="http://www.w3.org/2000/svg" xmlns:xlink="http://www.w3.org/1999/xlink" width="400" zoomAndPan="magnify" viewBox="0 0 300 38.249999" height="51" preserveAspectRatio="xMidYMid meet" version="1.0"><defs><g/><clipPath id="4adc5379df"><path d="M 144 11 L 152.222656 11 L 152.222656 20 L 144 20 Z M 144 11 " clip-rule="nonzero"/></clipPath></defs><g fill="#150d0a" fill-opacity="1"><g transform="translate(21.332555, 29.814014)"><g><path d="M 15.09375 -10.046875 L 19.4375 -10.046875 L 19.4375 -2.34375 C 18.363281 -1.59375 17.066406 -0.976562 15.546875 -0.5 C 14.035156 -0.0195312 12.59375 0.21875 11.21875 0.21875 C 8.21875 0.21875 5.707031 -0.742188 3.6875 -2.671875 C 1.675781 -4.597656 0.671875 -7 0.671875 -9.875 C 0.671875 -12.726562 1.703125 -15.113281 3.765625 -17.03125 C 5.835938 -18.945312 8.4375 -19.90625 11.5625 -19.90625 C 13.03125 -19.90625 14.488281 -19.640625 15.9375 -19.109375 C 17.382812 -18.585938 18.613281 -17.878906 19.625 -16.984375 L 16.8125 -13.5625 C 16.09375 -14.21875 15.265625 -14.738281 14.328125 -15.125 C 13.390625 -15.507812 12.457031 -15.703125 11.53125 -15.703125 C 9.914062 -15.703125 8.554688 -15.144531 7.453125 -14.03125 C 6.359375 -12.914062 5.8125 -11.53125 5.8125 -9.875 C 5.8125 -8.195312 6.363281 -6.796875 7.46875 -5.671875 C 8.582031 -4.546875 9.957031 -3.984375 11.59375 -3.984375 C 12.644531 -3.984375 13.8125 -4.300781 15.09375 -4.9375 Z M 15.09375 -10.046875 "/></g></g></g><g fill="#150d0a" fill-opacity="1"><g transform="translate(42.285809, 29.814014)"><g><path d="M 17.421875 -15.796875 L 7 -15.796875 L 7 -11.875 L 16.421875 -11.875 L 16.421875 -7.921875 L 7 -7.921875 L 7 -3.953125 L 17.734375 -3.953125 L 17.734375 0 L 1.96875 0 L 1.96875 -19.734375 L 17.421875 -19.734375 Z M 17.421875 -15.796875 "/></g></g></g><g fill="#150d0a" fill-opacity="1"><g transform="translate(61.293202, 29.814014)"><g><path d="M 17.421875 -15.796875 L 7 -15.796875 L 7 -11.875 L 16.421875 -11.875 L 16.421875 -7.921875 L 7 -7.921875 L 7 -3.953125 L 17.734375 -3.953125 L 17.734375 0 L 1.96875 0 L 1.96875 -19.734375 L 17.421875 -19.734375 Z M 17.421875 -15.796875 "/></g></g></g><g fill="#150d0a" fill-opacity="1"><g transform="translate(80.300595, 29.814014)"><g><path d="M 14.828125 0 L 9.625 -7.75 L 7 -4.84375 L 7 0 L 1.96875 0 L 1.96875 -19.734375 L 7 -19.734375 L 7 -11.203125 L 14.546875 -19.734375 L 20.359375 -19.734375 L 13.03125 -11.5625 L 20.84375 0 Z M 14.828125 0 "/></g></g></g><g fill="#150d0a" fill-opacity="1"><g transform="translate(101.366658, 29.814014)"><g/></g></g><g fill="#150d0a" fill-opacity="1"><g transform="translate(107.909265, 29.814014)"><g><path d="M 9.5625 -19.96875 C 12.507812 -19.96875 15.101562 -19.234375 17.34375 -17.765625 L 15.453125 -13.84375 C 14.421875 -14.445312 13.3125 -14.941406 12.125 -15.328125 C 10.9375 -15.710938 9.941406 -15.90625 9.140625 -15.90625 C 7.691406 -15.90625 6.96875 -15.425781 6.96875 -14.46875 C 6.96875 -13.84375 7.320312 -13.34375 8.03125 -12.96875 C 8.75 -12.59375 9.617188 -12.269531 10.640625 -12 C 11.671875 -11.726562 12.695312 -11.398438 13.71875 -11.015625 C 14.75 -10.628906 15.617188 -10.003906 16.328125 -9.140625 C 17.046875 -8.273438 17.40625 -7.179688 17.40625 -5.859375 C 17.40625 -3.960938 16.660156 -2.484375 15.171875 -1.421875 C 13.679688 -0.359375 11.789062 0.171875 9.5 0.171875 C 7.863281 0.171875 6.242188 -0.109375 4.640625 -0.671875 C 3.046875 -1.234375 1.660156 -2.003906 0.484375 -2.984375 L 2.421875 -6.859375 C 3.421875 -5.992188 4.597656 -5.28125 5.953125 -4.71875 C 7.304688 -4.164062 8.507812 -3.890625 9.5625 -3.890625 C 10.375 -3.890625 11.003906 -4.035156 11.453125 -4.328125 C 11.898438 -4.617188 12.125 -5.046875 12.125 -5.609375 C 12.125 -6.160156 11.863281 -6.617188 11.34375 -6.984375 C 10.832031 -7.347656 10.191406 -7.617188 9.421875 -7.796875 C 8.648438 -7.972656 7.8125 -8.210938 6.90625 -8.515625 C 6.007812 -8.816406 5.175781 -9.144531 4.40625 -9.5 C 3.632812 -9.863281 2.988281 -10.429688 2.46875 -11.203125 C 1.945312 -11.984375 1.6875 -12.921875 1.6875 -14.015625 C 1.6875 -15.816406 2.40625 -17.257812 3.84375 -18.34375 C 5.28125 -19.425781 7.1875 -19.96875 9.5625 -19.96875 Z M 9.5625 -19.96875 "/></g></g></g><g fill="#150d0a" fill-opacity="1"><g transform="translate(126.077467, 29.814014)"><g/></g></g><g fill="#150d0a" fill-opacity="1"><g transform="translate(132.620075, 29.814014)"><g/></g></g><g fill="#150d0a" fill-opacity="1"><g transform="translate(139.162682, 29.814014)"><g/></g></g><g fill="#150d0a" fill-opacity="1"><g transform="translate(145.705289, 29.814014)"><g/></g></g><g fill="#150d0a" fill-opacity="1"><g transform="translate(152.256074, 29.814014)"><g><path d="M 7 -4.203125 L 15.375 -4.203125 L 15.375 0 L 1.96875 0 L 1.96875 -19.734375 L 7 -19.734375 Z M 7 -4.203125 "/></g></g></g><g fill="#150d0a" fill-opacity="1"><g transform="translate(168.048572, 29.814014)"><g><path d="M 19.734375 -19.734375 L 19.734375 -8.296875 C 19.734375 -5.679688 18.925781 -3.609375 17.3125 -2.078125 C 15.695312 -0.546875 13.507812 0.21875 10.75 0.21875 C 7.96875 0.21875 5.753906 -0.546875 4.109375 -2.078125 C 2.460938 -3.609375 1.640625 -5.679688 1.640625 -8.296875 L 1.640625 -19.734375 L 6.65625 -19.734375 L 6.65625 -8.296875 C 6.65625 -6.972656 7.035156 -5.921875 7.796875 -5.140625 C 8.554688 -4.367188 9.550781 -3.984375 10.78125 -3.984375 C 11.976562 -3.984375 12.9375 -4.367188 13.65625 -5.140625 C 14.382812 -5.910156 14.75 -6.960938 14.75 -8.296875 L 14.75 -19.734375 Z M 19.734375 -19.734375 "/></g></g></g><g fill="#150d0a" fill-opacity="1"><g transform="translate(189.424841, 29.814014)"><g><path d="M 17.0625 -15.703125 L 11.109375 -15.703125 L 11.109375 0 L 6.09375 0 L 6.09375 -15.703125 L 0.203125 -15.703125 L 0.203125 -19.765625 L 17.0625 -19.765625 Z M 17.0625 -15.703125 "/></g></g></g><g fill="#150d0a" fill-opacity="1"><g transform="translate(206.655582, 29.814014)"><g><path d="M 7 0 L 1.96875 0 L 1.96875 -19.734375 L 7 -19.734375 Z M 7 0 "/></g></g></g><g fill="#150d0a" fill-opacity="1"><g transform="translate(215.623464, 29.814014)"><g><path d="M 11.34375 -19.90625 C 14.40625 -19.90625 16.953125 -18.953125 18.984375 -17.046875 C 21.015625 -15.140625 22.03125 -12.757812 22.03125 -9.90625 C 22.03125 -7.019531 21.007812 -4.609375 18.96875 -2.671875 C 16.925781 -0.742188 14.378906 0.21875 11.328125 0.21875 C 8.285156 0.21875 5.75 -0.742188 3.71875 -2.671875 C 1.6875 -4.597656 0.671875 -7.007812 0.671875 -9.90625 C 0.671875 -12.78125 1.6875 -15.164062 3.71875 -17.0625 C 5.75 -18.957031 8.289062 -19.90625 11.34375 -19.90625 Z M 11.390625 -15.703125 C 9.847656 -15.703125 8.53125 -15.144531 7.4375 -14.03125 C 6.351562 -12.914062 5.8125 -11.53125 5.8125 -9.875 C 5.8125 -8.21875 6.359375 -6.820312 7.453125 -5.6875 C 8.554688 -4.550781 9.867188 -3.984375 11.390625 -3.984375 C 12.910156 -3.984375 14.203125 -4.550781 15.265625 -5.6875 C 16.328125 -6.820312 16.859375 -8.21875 16.859375 -9.875 C 16.859375 -11.53125 16.328125 -12.914062 15.265625 -14.03125 C 14.203125 -15.144531 12.910156 -15.703125 11.390625 -15.703125 Z M 11.390625 -15.703125 "/></g></g></g><g fill="#150d0a" fill-opacity="1"><g transform="translate(238.325175, 29.814014)"><g><path d="M 20.1875 0 L 15.765625 0 L 6.6875 -12.15625 L 6.6875 0 L 1.96875 0 L 1.96875 -19.734375 L 6.40625 -19.734375 L 15.515625 -7.5625 L 15.515625 -19.734375 L 20.1875 -19.734375 Z M 20.1875 0 "/></g></g></g><g fill="#150d0a" fill-opacity="1"><g transform="translate(260.491072, 29.814014)"><g><path d="M 9.5625 -19.96875 C 12.507812 -19.96875 15.101562 -19.234375 17.34375 -17.765625 L 15.453125 -13.84375 C 14.421875 -14.445312 13.3125 -14.941406 12.125 -15.328125 C 10.9375 -15.710938 9.941406 -15.90625 9.140625 -15.90625 C 7.691406 -15.90625 6.96875 -15.425781 6.96875 -14.46875 C 6.96875 -13.84375 7.320312 -13.34375 8.03125 -12.96875 C 8.75 -12.59375 9.617188 -12.269531 10.640625 -12 C 11.671875 -11.726562 12.695312 -11.398438 13.71875 -11.015625 C 14.75 -10.628906 15.617188 -10.003906 16.328125 -9.140625 C 17.046875 -8.273438 17.40625 -7.179688 17.40625 -5.859375 C 17.40625 -3.960938 16.660156 -2.484375 15.171875 -1.421875 C 13.679688 -0.359375 11.789062 0.171875 9.5 0.171875 C 7.863281 0.171875 6.242188 -0.109375 4.640625 -0.671875 C 3.046875 -1.234375 1.660156 -2.003906 0.484375 -2.984375 L 2.421875 -6.859375 C 3.421875 -5.992188 4.597656 -5.28125 5.953125 -4.71875 C 7.304688 -4.164062 8.507812 -3.890625 9.5625 -3.890625 C 10.375 -3.890625 11.003906 -4.035156 11.453125 -4.328125 C 11.898438 -4.617188 12.125 -5.046875 12.125 -5.609375 C 12.125 -6.160156 11.863281 -6.617188 11.34375 -6.984375 C 10.832031 -7.347656 10.191406 -7.617188 9.421875 -7.796875 C 8.648438 -7.972656 7.8125 -8.210938 6.90625 -8.515625 C 6.007812 -8.816406 5.175781 -9.144531 4.40625 -9.5 C 3.632812 -9.863281 2.988281 -10.429688 2.46875 -11.203125 C 1.945312 -11.984375 1.6875 -12.921875 1.6875 -14.015625 C 1.6875 -15.816406 2.40625 -17.257812 3.84375 -18.34375 C 5.28125 -19.425781 7.1875 -19.96875 9.5625 -19.96875 Z M 9.5625 -19.96875 "/></g></g></g><path fill="#f46a25" d="M 134.363281 13.988281 L 133.777344 14.566406 C 134.144531 14.929688 135.109375 15.886719 135.472656 16.246094 L 136.058594 15.664062 C 135.691406 15.304688 134.726562 14.347656 134.363281 13.988281 " fill-opacity="1" fill-rule="nonzero"/><path fill="#f46a25" d="M 133.808594 23.183594 C 133.964844 23.339844 134.371094 23.742188 134.53125 23.898438 L 135.871094 22.574219 C 135.609375 22.3125 135.414062 22.121094 135.148438 21.859375 L 133.808594 23.183594 " fill-opacity="1" fill-rule="nonzero"/><path fill="#f46a25" d="M 147.027344 20.273438 C 146.417969 20.105469 145.804688 20.460938 145.632812 21.039062 C 144.148438 26.234375 137.488281 27.96875 133.59375 24.113281 C 129.710938 20.269531 131.429688 13.671875 136.703125 12.199219 C 137.285156 12.027344 137.644531 11.417969 137.472656 10.8125 C 137.292969 10.222656 136.671875 9.886719 136.074219 10.054688 C 129.132812 12.035156 126.925781 20.664062 132.003906 25.691406 C 137.050781 30.683594 145.785156 28.566406 147.796875 21.660156 C 147.96875 21.066406 147.625 20.449219 147.027344 20.273438 " fill-opacity="1" fill-rule="nonzero"/><path fill="#f46a25" d="M 141.542969 22.253906 C 141.90625 22.613281 142.871094 23.570312 143.238281 23.929688 L 143.824219 23.351562 C 143.457031 22.988281 142.492188 22.035156 142.128906 21.675781 L 141.542969 22.253906 " fill-opacity="1" fill-rule="nonzero"/><path fill="#150d0a" d="M 139.132812 14.234375 C 139.433594 13.894531 139.707031 13.640625 139.945312 13.480469 C 140.167969 13.328125 140.433594 13.253906 140.726562 13.253906 C 141.027344 13.253906 141.269531 13.328125 141.449219 13.472656 C 141.625 13.613281 141.707031 13.824219 141.707031 14.109375 C 141.707031 14.253906 141.683594 14.386719 141.640625 14.503906 C 141.59375 14.625 141.515625 14.75 141.410156 14.882812 C 141.300781 15.015625 141.15625 15.160156 140.980469 15.3125 C 140.804688 15.464844 140.582031 15.640625 140.324219 15.835938 L 137.507812 17.957031 L 137.507812 19.488281 L 143.925781 19.488281 L 143.925781 17.769531 L 140.59375 17.769531 L 141.605469 17.050781 C 141.96875 16.789062 142.292969 16.542969 142.570312 16.320312 C 142.851562 16.09375 143.089844 15.859375 143.273438 15.625 C 143.460938 15.390625 143.601562 15.136719 143.699219 14.871094 C 143.792969 14.605469 143.84375 14.304688 143.84375 13.96875 C 143.84375 13.59375 143.773438 13.25 143.636719 12.941406 C 143.496094 12.632812 143.292969 12.367188 143.027344 12.144531 C 142.765625 11.929688 142.449219 11.757812 142.082031 11.640625 C 141.714844 11.523438 141.300781 11.464844 140.847656 11.464844 C 140.464844 11.464844 140.121094 11.5 139.816406 11.570312 C 139.515625 11.644531 139.234375 11.753906 138.980469 11.894531 C 138.730469 12.035156 138.496094 12.210938 138.277344 12.414062 C 138.066406 12.613281 137.851562 12.847656 137.644531 13.109375 L 137.554688 13.21875 L 139.050781 14.328125 L 139.132812 14.234375 " fill-opacity="1" fill-rule="nonzero"/><g clip-path="url(#4adc5379df)"><path fill="#150d0a" d="M 149.039062 16.203125 L 147.277344 16.203125 L 149.039062 14.304688 Z M 151.054688 16.203125 L 151.054688 11.519531 L 149.316406 11.519531 L 144.671875 16.476562 L 145.011719 17.839844 L 149.039062 17.839844 L 149.039062 19.488281 L 151.054688 19.488281 L 151.054688 17.839844 L 152.171875 17.839844 L 152.171875 16.203125 L 151.054688 16.203125 " fill-opacity="1" fill-rule="nonzero"/></g></svg>