<svg xmlns="http://www.w3.org/2000/svg" xmlns:xlink="http://www.w3.org/1999/xlink" width="500" zoomAndPan="magnify" viewBox="0 0 375 374.999991" height="500" preserveAspectRatio="xMidYMid meet" version="1.0"><defs><clipPath id="1e95b42a6d"><path d="M 375 187.503906 C 375 291.050781 291.050781 375 187.5 375 C 83.945312 375 0 291.050781 0 187.503906 C 0 83.949219 83.945312 0 187.5 0 C 291.054688 0 375 83.949219 375 187.503906 Z M 375 187.503906 " clip-rule="nonzero"/></clipPath><clipPath id="a1a103cb8b"><path d="M 236 93 L 326.679688 93 L 326.679688 191 L 236 191 Z M 236 93 " clip-rule="nonzero"/></clipPath></defs><g clip-path="url(#1e95b42a6d)"><rect x="-37.5" width="450" fill="#150d0a" y="-37.499999" height="449.999989" fill-opacity="1"/></g><path fill="#f46a25" d="M 112.386719 123.390625 L 105.367188 130.429688 C 109.757812 134.832031 121.339844 146.445312 125.699219 150.816406 L 132.71875 143.777344 C 128.34375 139.40625 116.761719 127.777344 112.386719 123.390625 " fill-opacity="1" fill-rule="nonzero"/><path fill="#f46a25" d="M 105.738281 235.167969 C 107.59375 237.023438 112.496094 241.941406 114.394531 243.84375 L 130.492188 227.722656 C 127.316406 224.550781 124.980469 222.210938 121.820312 219.042969 L 105.738281 235.167969 " fill-opacity="1" fill-rule="nonzero"/><path fill="#f46a25" d="M 264.347656 199.796875 C 257.015625 197.71875 249.652344 202.042969 247.582031 209.066406 C 229.804688 272.238281 149.875 293.292969 103.140625 246.46875 C 56.558594 199.734375 77.203125 119.535156 140.441406 101.648438 C 147.433594 99.570312 151.742188 92.171875 149.6875 84.820312 C 147.539062 77.640625 140.082031 73.535156 132.90625 75.5625 C 49.632812 99.632812 23.152344 204.527344 84.070312 265.605469 C 144.628906 326.308594 249.449219 300.550781 273.582031 216.621094 C 275.605469 209.425781 271.527344 201.933594 264.347656 199.796875 " fill-opacity="1" fill-rule="nonzero"/><path fill="#f46a25" d="M 198.527344 223.835938 C 202.902344 228.21875 214.484375 239.832031 218.859375 244.21875 L 225.878906 237.195312 C 221.488281 232.792969 209.90625 221.164062 205.546875 216.808594 L 198.527344 223.835938 " fill-opacity="1" fill-rule="nonzero"/><path fill="#ffffff" d="M 169.617188 126.371094 C 173.210938 122.25 176.496094 119.175781 179.347656 117.222656 C 182.054688 115.382812 185.214844 114.445312 188.75 114.445312 C 192.332031 114.445312 195.242188 115.351562 197.390625 117.132812 C 199.492188 118.847656 200.503906 121.375 200.503906 124.871094 C 200.503906 126.605469 200.222656 128.214844 199.679688 129.648438 C 199.117188 131.132812 198.199219 132.660156 196.9375 134.253906 C 195.632812 135.894531 193.902344 137.640625 191.800781 139.46875 C 189.652344 141.355469 186.992188 143.496094 183.90625 145.835938 L 150.109375 171.636719 L 150.109375 190.257812 L 227.125 190.257812 L 227.125 169.328125 L 187.144531 169.328125 L 199.257812 160.601562 C 203.632812 157.417969 207.523438 154.421875 210.855469 151.71875 C 214.25 148.957031 217.097656 146.117188 219.292969 143.292969 C 221.519531 140.417969 223.234375 137.34375 224.386719 134.144531 C 225.539062 130.914062 226.128906 127.230469 226.128906 123.171875 C 226.128906 118.613281 225.273438 114.414062 223.636719 110.683594 C 221.972656 106.921875 219.527344 103.675781 216.351562 100.992188 C 213.222656 98.351562 209.394531 96.277344 204.988281 94.855469 C 200.613281 93.4375 195.632812 92.71875 190.183594 92.71875 C 185.605469 92.71875 181.464844 93.15625 177.835938 94.03125 C 174.195312 94.902344 170.816406 96.230469 167.796875 97.949219 C 164.804688 99.648438 161.957031 101.773438 159.371094 104.269531 C 156.820312 106.703125 154.25 109.542969 151.742188 112.714844 L 150.683594 114.039062 L 168.621094 127.511719 L 169.617188 126.371094 " fill-opacity="1" fill-rule="nonzero"/><g clip-path="url(#a1a103cb8b)"><path fill="#ffffff" d="M 288.464844 150.332031 L 267.355469 150.332031 L 288.464844 127.246094 Z M 312.671875 150.332031 L 312.671875 93.375 L 291.8125 93.375 L 236.0625 153.640625 L 240.140625 170.21875 L 288.464844 170.21875 L 288.464844 190.257812 L 312.671875 190.257812 L 312.671875 170.21875 L 326.046875 170.21875 L 326.046875 150.332031 L 312.671875 150.332031 " fill-opacity="1" fill-rule="nonzero"/></g></svg>